<?xml version="1.0" encoding="UTF-8"?>
<svg version="1.1" xmlns="http://www.w3.org/2000/svg" viewBox="60 620 1840 445" width="100%" height="100%">
<path d="M0 0 C0.86625 0.5775 1.7325 1.155 2.625 1.75 C9.62370259 8.38034982 14.22223979 17.56822474 18.9375 25.875 C19.92183265 27.5951475 20.90616568 29.31529477 21.89051819 31.03543091 C22.91320756 32.82467257 23.93354143 34.61523692 24.953125 36.40625 C26.95326824 39.91957816 28.9604064 43.42885228 30.96875 46.9375 C33.97401744 52.1894021 36.97543632 57.44348151 39.97447205 62.69894409 C42.31632145 66.80264107 44.65955008 70.90554708 47.00390625 75.0078125 C47.33424866 75.58586136 47.66459106 76.16391022 48.00494385 76.75947571 C49.00326941 78.50633228 50.00162782 80.25317007 51 82 C54.77919144 88.61241484 58.55809537 95.22498926 62.33328247 101.83969116 C63.80500228 104.41826832 65.27711956 106.99661846 66.74926758 109.57495117 C67.45031276 110.8030278 68.15116359 112.03121539 68.85180664 113.25952148 C69.8238877 114.96366068 70.79669496 116.66738557 71.76953125 118.37109375 C72.32229736 119.33974365 72.87506348 120.30839355 73.44458008 121.30639648 C74.49868995 123.13185468 75.5858024 124.93857796 76.7019043 126.72680664 C78 129 78 129 78 131 C80.66832407 128.59333485 82.28262452 126.01747845 84.046875 122.8984375 C84.63670166 121.86380371 85.22652832 120.82916992 85.83422852 119.76318359 C86.7825354 118.08603271 86.7825354 118.08603271 87.75 116.375 C89.10462181 113.99801975 90.46381322 111.62367405 91.82421875 109.25 C92.17109238 108.6442514 92.517966 108.03850281 92.87535095 107.41439819 C96.35566708 101.35180129 99.9489548 95.35901568 103.5625 89.375 C108.39203136 81.36666334 113.17186297 73.33326467 117.875 65.25 C118.71853027 63.80077148 118.71853027 63.80077148 119.57910156 62.32226562 C121.73359021 58.61882196 123.88694456 54.9147192 126.04022217 51.21057129 C128.26127006 47.39083568 130.48588731 43.57320883 132.71417236 39.75769043 C133.4296603 38.53124192 134.14403196 37.30414129 134.8571167 36.07629395 C138.71093541 29.44120005 142.6521994 22.87386523 146.78125 16.40625 C147.14793289 15.82873993 147.51461578 15.25122986 147.89241028 14.65621948 C155.1779853 3.35622477 166.04871084 -4.31199921 179 -8 C194.80097613 -11.22725507 212.50048964 -8.66513035 226.1875 0.0234375 C233.74856086 5.27613024 238.95708502 11.18304213 243.81054688 19.06884766 C245.11682389 21.18967097 246.45465047 23.28847127 247.796875 25.38671875 C250.36974078 29.42075981 252.91422466 33.47192452 255.45166016 37.52832031 C257.95609747 41.5262584 260.47874746 45.51265373 263 49.5 C264.00009191 51.08327528 265.0000918 52.66660869 266 54.25 C266.495 55.03375 266.99 55.8175 267.5 56.625 C273 65.33333333 278.5 74.04166667 284 82.75 C284.4957251 83.53487793 284.9914502 84.31975586 285.50219727 85.12841797 C286.49494664 86.7003116 287.48762329 88.27225116 288.48022461 89.84423828 C291.09054246 93.97799275 293.70238839 98.1107716 296.31640625 102.2421875 C296.85974609 103.10134766 297.40308594 103.96050781 297.96289062 104.84570312 C299.00148561 106.48792597 300.04052248 108.12986947 301.08007812 109.77148438 C301.54994141 110.51462891 302.01980469 111.25777344 302.50390625 112.0234375 C302.94105957 112.71276367 303.37821289 113.40208984 303.82861328 114.11230469 C304.83217077 115.72954239 305.77950047 117.38143818 306.71484375 119.0390625 C307.13894531 119.68617188 307.56304687 120.33328125 308 121 C308.66 121 309.32 121 310 121 C310.40089844 120.29319092 310.80179687 119.58638184 311.21484375 118.8581543 C318.70142083 105.67282359 326.23605428 92.524482 334 79.5 C339.08690451 70.96562265 344.09265591 62.39270357 349.00164795 53.75531006 C350.98618496 50.26608221 352.97952306 46.78187339 354.97280884 43.29763794 C356.68590753 40.30254906 358.39493637 37.30526838 360.09667969 34.30371094 C361.83766276 31.23598667 363.59570218 28.17857463 365.36474609 25.12695312 C366.33610872 23.44244414 367.29145185 21.74872845 368.24609375 20.0546875 C374.11329515 9.98950972 381.2615627 1.34962085 392.0625 -3.5 C392.75730469 -3.82548828 393.45210937 -4.15097656 394.16796875 -4.48632812 C399.04708259 -6.71116749 403.60871105 -8.59522271 409 -9 C410.17820312 -9.09152344 411.35640625 -9.18304687 412.5703125 -9.27734375 C427.48392672 -10.03876539 440.33338312 -5.50167766 452 4 C461.36035372 12.63179827 468.75969854 25.08082298 469.43359375 38.015625 C469.45059616 39.76033431 469.4517586 41.50526611 469.4375 43.25 C469.45748047 44.10207031 469.47746094 44.95414063 469.49804688 45.83203125 C469.4890339 57.92744728 464.92588543 68.06254988 458.6875 78.1875 C457.42741044 80.28847805 456.16833023 82.39006174 454.91015625 84.4921875 C454.26320801 85.56436523 453.61625977 86.63654297 452.94970703 87.74121094 C449.76938126 93.05688692 446.70305522 98.43719432 443.625 103.8125 C437.83019671 113.88874676 431.92724688 123.89716151 425.98535156 133.88720703 C420.75357515 142.69627732 415.61403636 151.55568107 410.50610352 160.43701172 C406.34020689 167.6802841 402.15101338 174.90932154 397.9375 182.125 C397.36298096 183.10895752 396.78846191 184.09291504 396.1965332 185.10668945 C393.88864798 189.05791622 391.57955677 193.0084376 389.27050781 196.95898438 C387.53393169 199.93065497 385.79812582 202.90277429 384.0625 205.875 C383.49184814 206.85130371 382.92119629 207.82760742 382.33325195 208.83349609 C379.22124065 214.16501077 376.13069713 219.50811208 373.06640625 224.8671875 C372.40166183 226.02753544 371.73686718 227.18785461 371.07202148 228.34814453 C369.81917331 230.53713342 368.56970932 232.72806453 367.32446289 234.92138672 C357.00199236 252.94584257 347.16774344 266.31159854 326.6875 272.875 C309.20112704 277.10801248 292.05953161 271.97687831 277 263 C267.20051651 256.3326727 261.10819595 246.92504011 255 237 C253.84657599 235.1578991 252.69152084 233.31681889 251.53515625 231.4765625 C248.97162251 227.39086773 246.41819662 223.29908129 243.87109375 219.203125 C240.22081833 213.34147562 236.52605207 207.50921813 232.8125 201.6875 C227.01622021 192.59894625 221.24900981 183.49259222 215.49853516 174.375 C213.92069208 171.87430638 212.3413925 169.37453756 210.76171875 166.875 C210.22627441 166.02768311 209.69083008 165.18036621 209.13916016 164.30737305 C208.12462544 162.70199518 207.1099855 161.09668381 206.09521484 159.49145508 C205.17674473 158.03771656 204.25969446 156.58307977 203.34423828 155.12744141 C202.41788952 153.66136747 201.48346953 152.20037277 200.54248047 150.74365234 C200.08373535 150.02773926 199.62499023 149.31182617 199.15234375 148.57421875 C198.53153931 147.614552 198.53153931 147.614552 197.89819336 146.63549805 C197 145 197 145 197 143 C196.34 143 195.68 143 195 143 C194.73227783 143.71357666 194.46455566 144.42715332 194.1887207 145.16235352 C192.97364068 148.06292346 191.55749071 150.6824972 189.98046875 153.40234375 C189.37702637 154.44616211 188.77358398 155.48998047 188.15185547 156.56542969 C187.50361816 157.67821289 186.85538086 158.79099609 186.1875 159.9375 C185.50909904 161.10699294 184.83087878 162.27659072 184.15283203 163.44628906 C178.3495523 173.44557266 172.47560719 183.40300269 166.57519531 193.34521484 C164.4909757 196.85789371 162.41031145 200.37266485 160.33129883 203.88842773 C159.27721608 205.67094562 158.22236579 207.45300986 157.16674805 209.23461914 C154.35783112 213.98199557 151.56657032 218.73889799 148.80276489 223.51264954 C147.30340369 226.10185127 145.79979618 228.68857842 144.29626465 231.27536011 C143.57033622 232.52727296 142.84653732 233.78042363 142.12512207 235.03494263 C132.78555658 251.27376209 124.05246681 264.1101532 106 271 C105.10410156 271.36996094 104.20820313 271.73992187 103.28515625 272.12109375 C98.8666566 273.30321316 94.73966076 273.25465691 90.1875 273.1875 C88.80340942 273.17565674 88.80340942 273.17565674 87.39135742 273.16357422 C67.37213696 272.91891209 50.7529393 271.95699981 34 260 C32.700625 259.13375 32.700625 259.13375 31.375 258.25 C24.37629741 251.61965018 19.77776021 242.43177526 15.0625 234.125 C14.07816735 232.4048525 13.09383432 230.68470523 12.10948181 228.96456909 C11.08679244 227.17532743 10.06645857 225.38476308 9.046875 223.59375 C7.04673176 220.08042184 5.0395936 216.57114772 3.03125 213.0625 C0.02598256 207.8105979 -2.97543632 202.55651849 -5.97447205 197.30105591 C-8.31632145 193.19735893 -10.65955391 189.09445511 -13.00390625 184.9921875 C-13.33375015 184.41499969 -13.66359406 183.83781189 -14.00343323 183.24313354 C-15.66725359 180.33175915 -17.33125294 177.42048712 -18.99536133 174.50927734 C-22.01661253 169.22346172 -25.03673805 163.9370188 -28.05130005 158.64738464 C-29.74179075 155.68116606 -31.43315935 152.7154488 -33.125 149.75 C-33.45755798 149.1670517 -33.79011597 148.58410339 -34.13275146 147.98348999 C-38.74788123 139.89753899 -43.41633648 131.84434248 -48.125 123.8125 C-53.48642213 114.66328177 -58.71182794 105.44464772 -63.86914062 96.17895508 C-66.68339228 91.12533359 -69.51517115 86.08436492 -72.40625 81.07421875 C-72.94878418 80.13344482 -73.49131836 79.1926709 -74.05029297 78.22338867 C-75.06110438 76.47523343 -76.07545043 74.7291145 -77.09423828 72.9855957 C-85.39881304 58.61612928 -90.36714212 43.3123297 -85.9375 26.6875 C-85.34833751 25.10276201 -84.69680796 23.54044332 -84 22 C-83.5359375 20.96488281 -83.071875 19.92976562 -82.59375 18.86328125 C-75.55593711 4.57187347 -64.68763821 -4.29643828 -50.1171875 -10.16015625 C-32.10259371 -15.80612952 -14.79029282 -10.55620899 0 0 Z " fill="#1B17FE" transform="translate(146,769)"/>
<path d="M0 0 C1.06476563 0.55816406 2.12953125 1.11632812 3.2265625 1.69140625 C4.69996094 2.35849609 4.69996094 2.35849609 6.203125 3.0390625 C24.13548801 11.70216181 35.74588779 29.06010651 42.55078125 47.2265625 C47.90308001 65.08633837 47.21430413 86.15977119 40.5390625 103.56640625 C40.27851074 104.24840088 40.01795898 104.93039551 39.74951172 105.63305664 C32.88770889 123.00720649 20.81942656 137.32270478 3.8515625 145.56640625 C1.99224161 146.31492942 0.1157368 147.02179326 -1.7734375 147.69140625 C-2.83304688 148.08199219 -3.89265625 148.47257813 -4.984375 148.875 C-19.61946748 153.54336835 -37.7044426 154.42773819 -51.7734375 147.69140625 C-52.62550781 147.32917969 -53.47757813 146.96695313 -54.35546875 146.59375 C-66.60734328 141.04182529 -75.39083838 131.76530492 -82.7734375 120.69140625 C-83.1034375 146.43140625 -83.4334375 172.17140625 -83.7734375 198.69140625 C-92.0234375 198.69140625 -100.2734375 198.69140625 -108.7734375 198.69140625 C-108.7734375 132.69140625 -108.7734375 66.69140625 -108.7734375 -1.30859375 C-100.8534375 -1.30859375 -92.9334375 -1.30859375 -84.7734375 -1.30859375 C-84.2784375 13.04640625 -84.2784375 13.04640625 -83.7734375 27.69140625 C-81.1334375 24.06140625 -78.4934375 20.43140625 -75.7734375 16.69140625 C-57.42732463 -3.75999826 -25.47471329 -12.26573257 0 0 Z " fill="#020202" transform="translate(1355.7734375,846.30859375)"/>
<path d="M0 0 C7.12313829 5.69082034 12.93485576 11.93309293 17.625 19.75 C17.955 10.51 18.285 1.27 18.625 -8.25 C26.875 -8.25 35.125 -8.25 43.625 -8.25 C43.625 40.92 43.625 90.09 43.625 140.75 C35.705 140.75 27.785 140.75 19.625 140.75 C19.295 130.85 18.965 120.95 18.625 110.75 C16.645 114.05 14.665 117.35 12.625 120.75 C3.7963413 133.01202597 -10.90409584 141.41191413 -25.625 144.31640625 C-47.44427864 146.83926034 -66.85658061 143.0787289 -84.375 129.375 C-94.6308827 120.41071272 -101.78801918 109.39486903 -106.625 96.75 C-106.87137207 96.10981934 -107.11774414 95.46963867 -107.37158203 94.81005859 C-114.7293955 74.65870078 -113.61416121 50.8869925 -104.63842773 31.51367188 C-100.99017796 24.03963764 -96.67546214 17.17775879 -91.375 10.75 C-90.59962891 9.80447266 -90.59962891 9.80447266 -89.80859375 8.83984375 C-81.32749142 -0.4914944 -69.21489262 -6.51273947 -57.375 -10.25 C-56.60929688 -10.49492188 -55.84359375 -10.73984375 -55.0546875 -10.9921875 C-36.66577914 -15.94565728 -15.26081261 -10.95598364 0 0 Z " fill="#030303" transform="translate(1037.375,853.25)"/>
<path d="M0 0 C1.61901196 1.25186594 3.22406229 2.52206066 4.8125 3.8125 C6.03259766 4.72515625 6.03259766 4.72515625 7.27734375 5.65625 C21.14861021 17.45430714 29.72113082 35.95402576 31.8125 53.8125 C32.91023567 71.17326484 31.1844803 87.29251312 22.8125 102.8125 C22.15121094 104.06933594 22.15121094 104.06933594 21.4765625 105.3515625 C11.03103996 123.99191488 -5.99261374 135.10304988 -26.15234375 141.0859375 C-47.21438981 146.12781725 -68.71519673 142.91854736 -87.1875 131.8125 C-90.74438229 129.36120278 -93.98620254 126.70942962 -97.1875 123.8125 C-97.95707031 123.13574219 -98.72664063 122.45898438 -99.51953125 121.76171875 C-113.81497916 108.44040698 -121.78370525 89.52012 -122.55859375 70.17578125 C-122.99201516 45.20403993 -117.43408853 25.77463821 -99.875 7.1875 C-72.84130735 -18.76962967 -30.42691607 -21.92046641 0 0 Z " fill="#020202" transform="translate(1530.1875,855.1875)"/>
<path d="M0 0 C8.91 0 17.82 0 27 0 C31.50053271 11.25133177 31.50053271 11.25133177 33.43505859 17.06225586 C33.64751504 17.69774951 33.85997149 18.33324316 34.078866 18.98799419 C34.77162204 21.06265732 35.46009896 23.13871124 36.1484375 25.21484375 C36.64259875 26.69818612 37.13699413 28.18145051 37.63160706 29.66464233 C38.94552288 33.60753379 40.25549572 37.55172417 41.56449509 41.49625015 C42.37784982 43.94608368 43.19239182 46.39551914 44.00735474 48.84481812 C50.93652485 69.66994778 57.82560529 90.50748386 64.58056641 111.38989258 C66.94379976 118.69455244 69.31841453 125.99380898 71.76953125 133.26953125 C71.9846788 133.90907242 72.19982635 134.54861359 72.42149353 135.20753479 C73.38745579 138.07601207 74.35875181 140.94248315 75.33959961 143.8059082 C77.26623118 149.49825039 78.80940828 155.10778589 80 161 C80.33 161 80.66 161 81 161 C81.15855469 160.175 81.31710937 159.35 81.48046875 158.5 C83.83285987 146.85501413 87.41456533 135.72490755 91.18359375 124.47265625 C91.77019775 122.72021606 91.77019775 122.72021606 92.36865234 120.93237305 C93.14248031 118.62655561 93.91992639 116.321948 94.70166016 114.01879883 C96.98614747 107.23988542 99.05353055 100.43089338 100.98852539 93.54443359 C102.70211853 87.53961942 104.57427436 81.58474763 106.4375 75.625 C106.80681641 74.4390625 107.17613281 73.253125 107.55664062 72.03125 C108.70244796 68.35354606 109.8510263 64.67671583 111 61 C111.38406006 59.76894531 111.76812012 58.53789063 112.16381836 57.26953125 C115.36629289 47.00628786 118.58420559 36.74790998 121.8215332 26.49560547 C122.4054936 24.64412008 122.98814739 22.79222214 123.56958008 20.93994141 C124.42213291 18.22457842 125.27896855 15.5106 126.13671875 12.796875 C126.39507004 11.97088806 126.65342133 11.14490112 126.91960144 10.29388428 C127.28557182 9.14052582 127.28557182 9.14052582 127.65893555 7.96386719 C127.8703569 7.29264832 128.08177826 6.62142944 128.29960632 5.92987061 C129 4 129 4 131 0 C140.24 0 149.48 0 159 0 C160.98 6.435 160.98 6.435 163 13 C164.16165809 16.66839395 165.32706373 20.33523757 166.5 24 C168.67420595 30.8115946 170.81864728 37.63005143 172.90625 44.46875 C174.40932033 49.32151993 175.95566706 54.16022855 177.5 59 C179.67358978 65.81179392 181.81864483 72.6300434 183.90625 79.46875 C185.68859821 85.2231885 187.52697497 90.95984712 189.36328125 96.69726562 C191.25402048 102.61553842 193.09412911 108.54784027 194.91552734 114.48779297 C196.08622861 118.27926268 197.27705808 122.06398541 198.47265625 125.84765625 C198.90177099 127.2089597 199.33080688 128.57028801 199.75976562 129.93164062 C200.41170752 132.00065577 201.06466475 134.06932011 201.72094727 136.13696289 C204.43559769 144.69513326 206.92833191 153.25899099 209 162 C209.23254643 161.01906309 209.46509287 160.03812618 209.70468616 159.02746391 C211.99455427 149.5282733 214.72484377 140.26052236 217.84448242 130.99658203 C218.31686091 129.57893591 218.78871234 128.16111407 219.26008606 126.74313354 C220.52306275 122.94885687 221.79336814 119.15707329 223.06524062 115.36577082 C224.40089269 111.38032435 225.72985178 107.39264668 227.05964661 103.40524292 C229.28732396 96.72862259 231.51940991 90.05349036 233.75463867 83.37939453 C236.62513265 74.80842771 239.48863209 66.23514136 242.34984875 57.66107368 C244.81491049 50.27417544 247.28265224 42.88817307 249.75108552 35.50240088 C250.2800614 33.91952217 250.80894449 32.33661246 251.33773589 30.75367212 C252.84100365 26.25363639 254.34567715 21.75407645 255.85279655 17.25532913 C256.30924827 15.89210438 256.76519486 14.52871038 257.22060776 13.16513824 C257.84047559 11.30950554 258.4623782 9.4545529 259.08439636 7.59963989 C259.4322478 6.56035906 259.78009924 5.52107822 260.13849163 4.45030403 C261 2 261 2 262 0 C270.91 0 279.82 0 289 0 C287.20171048 6.59372823 285.41463265 13.04507404 283.21948242 19.49267578 C282.95867889 20.26723114 282.69787537 21.0417865 282.4291687 21.83981323 C281.57432647 24.3760235 280.71495878 26.91067394 279.85546875 29.4453125 C279.24284894 31.25942381 278.63049426 33.07362467 278.01838684 34.88790894 C276.40404647 39.67018447 274.78577204 44.45111995 273.16674805 49.23181152 C271.88795622 53.01000214 270.61197088 56.78913729 269.33615208 60.56833267 C262.54505257 80.68416342 255.71635478 100.78692282 248.84727478 120.87625504 C244.97473222 132.20210398 241.12019101 143.53375589 237.29296875 154.875 C236.85752521 156.16454974 236.42205502 157.45409048 235.98655701 158.74362183 C234.2731086 163.81825486 232.55985084 168.8929478 230.85131836 173.96923828 C229.97608772 176.56939602 229.09932655 179.16902738 228.22077942 181.76806641 C227.41266024 184.15887036 226.60679147 186.55043653 225.80351257 188.94287109 C225.44836075 189.99168457 225.09320892 191.04049805 224.72729492 192.12109375 C224.41644455 193.0433374 224.10559418 193.96558105 223.7853241 194.91577148 C223 197 223 197 222 198 C220.14630389 198.08737645 218.28932459 198.10698153 216.43359375 198.09765625 C215.30888672 198.09443359 214.18417969 198.09121094 213.02539062 198.08789062 C211.84138672 198.07951172 210.65738281 198.07113281 209.4375 198.0625 C208.24962891 198.05798828 207.06175781 198.05347656 205.83789062 198.04882812 C202.89187774 198.03699675 199.94596319 198.02051287 197 198 C192.11501133 185.07698451 187.49440408 172.09202581 183.70361328 158.80297852 C182.60460042 154.97370501 181.40669448 151.22689971 180 147.5 C178.46599511 143.43434789 177.20967229 139.34786382 176.0234375 135.16796875 C172.1181062 121.67410096 167.66868065 108.34269966 163.32989502 94.98352051 C161.47655014 89.27536591 159.6273593 83.56586288 157.77773285 77.85650253 C157.32882392 76.47096404 156.87981455 75.08545808 156.43070221 73.6999855 C152.57779475 61.81349696 148.76943692 49.91323306 145 38 C143.39364305 41.02417473 142.24617271 44.0431515 141.18408203 47.29663086 C140.83677032 48.3555101 140.48945862 49.41438934 140.13162231 50.50535583 C139.76076508 51.64698685 139.38990784 52.78861786 139.0078125 53.96484375 C138.62060028 55.14913467 138.23338806 56.3334256 137.83444214 57.55360413 C137.01430083 60.06399894 136.19533035 62.57473798 135.37841797 65.08618164 C134.14021087 68.89269171 132.89642422 72.69735847 131.65234375 76.50195312 C130.8539023 78.94783038 130.05571728 81.39379137 129.2578125 83.83984375 C128.89100372 84.96325668 128.52419495 86.08666962 128.14627075 87.24412537 C126.02268002 93.77344265 123.97130438 100.32107154 121.96221924 106.88645935 C120.5025555 111.6096266 118.96820388 116.30723477 117.42578125 121.00390625 C117.10032318 121.99832733 116.77486511 122.99274841 116.43954468 124.01730347 C115.7511155 126.12064231 115.06222511 128.22383026 114.37289429 130.32687378 C112.58167368 135.79250147 110.79470729 141.2595193 109.0078125 146.7265625 C108.65847153 147.7952507 108.30913055 148.8639389 107.94920349 149.9650116 C105.17684801 158.44993287 102.42033395 166.93976974 99.6875 175.4375 C99.34565674 176.498479 99.00381348 177.55945801 98.65161133 178.65258789 C96.8971168 184.12115979 95.211555 189.60169509 93.62426758 195.12133789 C93 197 93 197 92 198 C90.14630389 198.08737645 88.28932459 198.10698153 86.43359375 198.09765625 C85.30888672 198.09443359 84.18417969 198.09121094 83.02539062 198.08789062 C81.84138672 198.07951172 80.65738281 198.07113281 79.4375 198.0625 C78.24962891 198.05798828 77.06175781 198.05347656 75.83789062 198.04882812 C72.89187774 198.03699675 69.94596319 198.02051287 67 198 C57.5856604 171.36785325 48.46270573 144.64093964 39.4375 117.875 C39.16514652 117.06732933 38.89279305 116.25965866 38.61218643 115.42751312 C37.2472512 111.3796576 35.88245463 107.33175533 34.51768494 103.28384399 C34.25272657 102.49798542 33.98776821 101.71212685 33.71478081 100.90245438 C33.18501315 99.33113204 32.65527488 97.7597998 32.12556648 96.18845749 C27.85927566 83.53354789 23.57165128 70.88612733 19.25 58.25 C18.98369781 57.47081207 18.71739563 56.69162415 18.44302368 55.88882446 C15.71273385 47.9011501 12.97247915 39.91694565 10.22363281 31.93563843 C8.98578518 28.34029057 7.75007031 24.74421136 6.51452637 21.14807129 C5.6478125 18.6288087 4.77761503 16.11076836 3.90722656 13.59277344 C3.38850112 12.08404307 2.86993703 10.57525722 2.3515625 9.06640625 C2.11174652 8.37597733 1.87193054 7.6855484 1.62484741 6.97419739 C0 2.2275932 0 2.2275932 0 0 Z " fill="#020202" transform="translate(639,796)"/>
<path d="M0 0 C10.09237583 8.41548877 18.07268741 21.14895894 19.33642578 34.390625 C20.09402571 46.17457486 19.77465206 56.3639334 14.1015625 66.9296875 C13.65554688 67.8165625 13.20953125 68.7034375 12.75 69.6171875 C5.75484528 82.43512464 -6.4388879 91.98087694 -20.35498047 96.35400391 C-25.27135069 97.46677037 -30.18986269 97.45957035 -35.2109375 97.4296875 C-36.32162598 97.42396729 -37.43231445 97.41824707 -38.57666016 97.41235352 C-46.80058548 97.23262535 -52.81839945 96.32419388 -59.8984375 91.9296875 C-60.84460938 91.39859375 -61.79078125 90.8675 -62.765625 90.3203125 C-75.95800689 82.52643919 -84.79636467 71.14011453 -89.234375 56.37890625 C-91.96201252 42.21123605 -90.40479029 27.49205908 -83.1484375 14.890625 C-81.49006172 12.46739488 -79.76789615 10.19227615 -77.8984375 7.9296875 C-77.27324219 7.09824219 -76.64804687 6.26679687 -76.00390625 5.41015625 C-56.17838645 -17.94643944 -23.17972877 -16.55694912 0 0 Z " fill="#1C18FE" transform="translate(670.8984375,643.0703125)"/>
<path d="M0 0 C8.58 0 17.16 0 26 0 C28.34155813 4.68311626 30.52053885 9.05163719 32.43505859 13.8605957 C33.08825829 15.49384796 33.08825829 15.49384796 33.75465393 17.16009521 C34.4445768 18.9003598 34.4445768 18.9003598 35.1484375 20.67578125 C35.64279027 21.91526517 36.13746225 23.15462181 36.63243103 24.39385986 C37.94666772 27.68673859 39.25671089 30.98126921 40.56570816 34.27623367 C41.91965709 37.68291651 43.27668366 41.08837279 44.63354492 44.49389648 C46.25235906 48.55711775 47.87098867 52.62041101 49.48802185 56.68434143 C52.49991944 64.25166684 55.53052701 71.81107341 58.58984375 79.359375 C59.23982525 80.96700902 59.88973144 82.57467348 60.53955078 84.18237305 C61.40985364 86.33528158 62.28180019 88.48740974 63.1605835 90.63687134 C71 109.81706787 71 109.81706787 71 116 C71.66 116 72.32 116 73 116 C73.0971955 115.40293527 73.194391 114.80587053 73.29453182 114.19071293 C74.49148059 107.51156303 76.51583444 101.51521647 79.06665039 95.24194336 C79.47498611 94.21796448 79.88332184 93.1939856 80.30403137 92.13897705 C81.64361742 88.78587818 82.995409 85.4378543 84.34765625 82.08984375 C85.28473194 79.75267809 86.22111793 77.4152358 87.15684509 75.07752991 C89.11276133 70.19613711 91.07402772 65.31693295 93.0402832 60.43969727 C95.56599299 54.17466655 98.08120978 47.90547867 100.59313297 41.63490963 C102.98706769 35.66018566 105.38596022 29.68745647 107.78515625 23.71484375 C108.24452135 22.57000959 108.70388645 21.42517544 109.17717171 20.24564934 C110.46960886 17.0271512 111.76557741 13.81010022 113.06274414 10.59350586 C113.44873779 9.63098404 113.83473145 8.66846222 114.23242188 7.67677307 C114.58430069 6.80636383 114.9361795 5.93595459 115.29872131 5.03916931 C115.60492433 4.27877318 115.91112734 3.51837706 116.22660923 2.73493862 C117 1 117 1 118 0 C119.92667507 -0.08748207 121.85651861 -0.10697334 123.78515625 -0.09765625 C124.95498047 -0.09443359 126.12480469 -0.09121094 127.33007812 -0.08789062 C128.56177734 -0.07951172 129.79347656 -0.07113281 131.0625 -0.0625 C132.91584961 -0.05573242 132.91584961 -0.05573242 134.80664062 -0.04882812 C137.87114117 -0.03699608 140.93554721 -0.02051173 144 0 C141.61788729 7.45396195 138.80296263 14.68247969 135.875 21.9375 C135.35245293 23.23748151 134.83007903 24.53753263 134.30786133 25.83764648 C132.54323484 30.22698187 130.77204492 34.61365527 129 39 C128.51542328 40.19985535 128.51542328 40.19985535 128.02105713 41.4239502 C123.7549719 51.98622998 119.48044309 62.54507771 115.20094299 73.10192871 C112.84518492 78.9133703 110.49206021 84.7258706 108.140625 90.5390625 C105.38371312 97.35392915 102.62083886 104.16635097 99.85244751 110.9765625 C98.20548658 115.02876082 96.56173889 119.08222421 94.92285156 123.13769531 C93.15223652 127.51875336 91.37502169 131.89708636 89.59378052 136.27383423 C88.92101244 137.92996294 88.25039807 139.58696867 87.58224487 141.2449646 C84.24291668 149.52740049 80.78269516 157.70221173 76.80078125 165.69921875 C76.32723961 166.65100761 76.32723961 166.65100761 75.84413147 167.62202454 C69.16784882 180.74752917 60.96110699 191.8041484 46.8125 197.2109375 C36.7817983 200.02510659 27.2181233 200.24283868 16.875 200.125 C15.33073499 200.11494704 13.78646362 200.10582529 12.2421875 200.09765625 C8.49450266 200.07755064 4.74771807 200.03837254 1 200 C1 192.74 1 185.48 1 178 C3.3615625 177.97421875 5.723125 177.9484375 8.15625 177.921875 C10.46658786 177.88336159 12.7767095 177.83823176 15.08691406 177.79248047 C16.68120847 177.76441418 18.27563832 177.74312887 19.87011719 177.72900391 C33.43168972 177.71133511 33.43168972 177.71133511 45.06640625 171.23828125 C48.88318505 166.32529966 51.54115982 161.12090701 54 155.4375 C54.31525635 154.72956299 54.6305127 154.02162598 54.95532227 153.29223633 C55.23819092 152.59638428 55.52105957 151.90053223 55.8125 151.18359375 C56.19341797 150.26404907 56.19341797 150.26404907 56.58203125 149.32592773 C57.78924365 142.60798818 55.32485141 136.59714613 52.7109375 130.55078125 C52.37607834 129.75336517 52.04121918 128.9559491 51.69621277 128.1343689 C50.97467973 126.41907534 50.24866361 124.70566191 49.51858521 122.99398804 C47.95322759 119.32352456 46.4099599 115.64390106 44.8651886 111.96473694 C44.06933636 110.06984919 43.2723614 108.17543261 42.47428894 106.28147888 C38.7551703 97.44948368 35.14565876 88.57533173 31.5625 79.6875 C30.34720849 76.67803978 29.13085794 73.66900868 27.9140625 70.66015625 C27.60600174 69.89823471 27.29794098 69.13631317 26.98054504 68.3513031 C22.08111322 56.24514571 17.11890849 44.16446583 12.16430664 32.08081055 C10.42531743 27.8384272 8.68968578 23.59469092 6.95819092 19.34924316 C6.32405206 17.79449416 5.68917529 16.24004591 5.05352783 14.68591309 C4.18954969 12.57072999 3.33029599 10.45369708 2.47265625 8.3359375 C1.9919165 7.15306152 1.51117676 5.97018555 1.01586914 4.75146484 C0 2 0 2 0 0 Z " fill="#030303" transform="translate(1094,845)"/>
<path d="M0 0 C12.93132035 12.24208754 18.64094004 30.55960335 19.27656746 47.86200333 C19.30897261 50.33974972 19.31147728 52.81552452 19.30102539 55.29345703 C19.30117142 56.2215065 19.30131744 57.14955597 19.3014679 58.10572815 C19.30077809 61.13561441 19.2930299 64.16543714 19.28515625 67.1953125 C19.28328875 69.31094326 19.28186642 71.42657446 19.28086853 73.54220581 C19.27706948 79.08232845 19.26726177 84.62242444 19.25616455 90.16253662 C19.24589399 95.82710408 19.24135886 101.49167589 19.23632812 107.15625 C19.22563693 118.25001353 19.20806155 129.34375037 19.1875 140.4375 C10.9375 140.4375 2.6875 140.4375 -5.8125 140.4375 C-5.82708252 137.6830957 -5.84166504 134.92869141 -5.85668945 132.09082031 C-5.90719698 122.95449048 -5.97382004 113.8183282 -6.04821491 104.68216324 C-6.09279845 99.14701057 -6.13208073 93.61192948 -6.15893555 88.07666016 C-6.18508878 82.72727465 -6.22557519 77.37816636 -6.27568626 72.02895355 C-6.29227404 69.99583148 -6.30383837 67.96266156 -6.31011391 65.92948151 C-6.36093558 50.96732607 -7.486946 38.78306372 -14.8125 25.4375 C-15.15796875 24.7053125 -15.5034375 23.973125 -15.859375 23.21875 C-17.13938526 20.82659967 -18.32885878 20.51150701 -20.8125 19.4375 C-21.864375 18.798125 -22.91625 18.15875 -24 17.5 C-31.29413325 13.3465168 -38.34499488 11.89858604 -46.6875 12 C-47.56446533 12.00757324 -48.44143066 12.01514648 -49.3449707 12.02294922 C-61.82859349 12.33981005 -71.4882601 17.30156974 -80.5625 25.75 C-89.9837199 35.69341223 -93.91980755 49.51100226 -94.01782227 62.8996582 C-94.03267166 64.158964 -94.03267166 64.158964 -94.04782104 65.44371033 C-94.07931598 68.20853897 -94.10414585 70.97338478 -94.12890625 73.73828125 C-94.14948615 75.65928077 -94.1704829 77.58027588 -94.19187927 79.50126648 C-94.24699292 84.54985973 -94.29644932 89.59849313 -94.34472656 94.64715576 C-94.39501987 99.80191609 -94.45066503 104.95661835 -94.50585938 110.11132812 C-94.61330997 120.22000425 -94.71428915 130.32872988 -94.8125 140.4375 C-103.0625 140.4375 -111.3125 140.4375 -119.8125 140.4375 C-119.8125 91.2675 -119.8125 42.0975 -119.8125 -8.5625 C-111.5625 -8.5625 -103.3125 -8.5625 -94.8125 -8.5625 C-94.4825 -0.3125 -94.1525 7.9375 -93.8125 16.4375 C-91.8325 13.4675 -89.8525 10.4975 -87.8125 7.4375 C-66.02748568 -17.4542468 -25.95353335 -19.42019586 0 0 Z " fill="#040404" transform="translate(1755.8125,853.5625)"/>
<path d="M0 0 C12.1024541 8.35175628 20.7385875 20.59534425 23.80078125 35.0859375 C24.65850716 47.48451345 25.52840185 60.74374144 19.80078125 72.0859375 C19.45015625 72.86195313 19.09953125 73.63796875 18.73828125 74.4375 C12.4085643 87.22880301 1.13296675 96.37794262 -12.19921875 101.0859375 C-25.84008747 105.02379991 -39.24952379 104.25185309 -51.9453125 97.66015625 C-66.60153832 89.23228197 -73.99712841 77.63323181 -79.3125 61.76171875 C-82.57416506 48.24089577 -80.71870576 31.95326185 -74.07421875 19.8359375 C-67.77538449 9.93965188 -60.59767986 2.59960816 -50.19921875 -2.9140625 C-49.41675781 -3.34847656 -48.63429688 -3.78289063 -47.828125 -4.23046875 C-33.02304637 -11.02896086 -13.5300233 -8.09488573 0 0 Z " fill="#FFFFFF" transform="translate(1352.19921875,871.9140625)"/>
<path d="M0 0 C2.53792919 1.92174001 4.84023591 3.93372105 7.13671875 6.13671875 C7.85472656 6.81476562 8.57273437 7.4928125 9.3125 8.19140625 C14.98380751 14.02292018 18.1743503 20.61758609 21.13671875 28.13671875 C21.51183594 29.02101563 21.88695312 29.9053125 22.2734375 30.81640625 C26.50339514 47.08547409 23.24537116 64.71953201 14.94921875 79.01171875 C6.52908448 91.22454281 -5.46592406 98.52178896 -19.8671875 101.66796875 C-33.74379053 103.83901486 -47.22541594 101.03939995 -58.86328125 93.13671875 C-71.14991485 83.88114895 -78.5669051 71.39581632 -80.86328125 56.13671875 C-81.60442962 44.72097512 -81.87590004 33.65662265 -76.86328125 23.13671875 C-76.51265625 22.35554687 -76.16203125 21.574375 -75.80078125 20.76953125 C-69.45446566 8.03282842 -58.33996197 -1.13660924 -45.1875 -6.13671875 C-29.79476815 -10.94856434 -13.41155846 -8.72757624 0 0 Z " fill="#FFFFFF" transform="translate(1031.86328125,872.86328125)"/>
<path d="M0 0 C10.1297286 8.28633276 16.26979606 19.8771065 18.6875 32.625 C18.82012764 34.08102085 18.91929452 35.54018034 19 37 C19.06445312 38.09183594 19.12890625 39.18367187 19.1953125 40.30859375 C19.68878727 56.11623569 15.55705363 71.60053495 4.61328125 83.44921875 C-1.46548632 89.29248927 -8.19297575 92.8951892 -16 96 C-17.30904297 96.55107422 -17.30904297 96.55107422 -18.64453125 97.11328125 C-31.16827544 100.42281551 -46.73359119 99.51684431 -58 93 C-70.55628922 85.27178525 -79.4497309 74.97703336 -83.875 60.75 C-87.29828212 44.95340901 -86.53951826 28.31717602 -78.390625 14.21484375 C-70.80953047 2.68671147 -60.46771068 -6.19614279 -47 -10 C-29.86605629 -13.02134388 -13.95117886 -10.78448271 0 0 Z " fill="#FFFFFF" transform="translate(1518,876)"/>
<path d="M0 0 C8.25 0 16.5 0 25 0 C25 14.52 25 29.04 25 44 C41.5 44 58 44 75 44 C75 51.26 75 58.52 75 66 C58.5 66 42 66 25 66 C25.06194135 80.07929632 25.06194135 80.07929632 25.16015625 94.15820312 C25.20830581 99.90958851 25.25241964 105.66078664 25.27099609 111.41235352 C25.28626134 116.05509169 25.32087917 120.6973363 25.36830902 125.33985329 C25.38302187 127.10140478 25.39103514 128.86302678 25.39188385 130.62463951 C25.40366472 142.82850395 25.92413719 154.51039411 33 165 C38.96986862 169.64323115 44.43837912 171.21517821 51.9296875 171.4140625 C53.86328125 171.47207031 53.86328125 171.47207031 55.8359375 171.53125 C57.18228707 171.56269758 58.52864132 171.59394511 59.875 171.625 C61.24481514 171.66323041 62.61460755 171.70228501 63.984375 171.7421875 C67.32269834 171.83622478 70.66133025 171.91919143 74 172 C74 178.93 74 185.86 74 193 C68.94982423 193.06942706 63.90134964 193.12898752 58.85107422 193.16479492 C57.13845158 193.1797446 55.42586629 193.20011186 53.71337891 193.22631836 C38.58179438 193.45183292 25.2865673 192.93894178 13.80859375 181.890625 C2.558958 169.87443949 -0.19284078 154.73094672 -0.11352539 138.65625 C-0.11367142 137.86504257 -0.11381744 137.07383514 -0.1139679 136.25865173 C-0.11327742 133.6724055 -0.10552601 131.08623347 -0.09765625 128.5 C-0.09578899 126.69539428 -0.09436654 124.89078805 -0.09336853 123.08618164 C-0.0895676 118.35816017 -0.07975824 113.63016988 -0.06866455 108.90216064 C-0.05839809 104.06889264 -0.05385973 99.23561954 -0.04882812 94.40234375 C-0.0381336 84.93488 -0.02055666 75.46744748 0 66 C-10.89 66 -21.78 66 -33 66 C-33 58.74 -33 51.48 -33 44 C-22.11 44 -11.22 44 0 44 C0 29.48 0 14.96 0 0 Z " fill="#020202" transform="translate(1815,801)"/>
<path d="M0 0 C8.58 0 17.16 0 26 0 C26 49.17 26 98.34 26 149 C17.42 149 8.84 149 0 149 C0 99.83 0 50.66 0 0 Z " fill="#080808" transform="translate(1580,845)"/>
<path d="M0 0 C4.44729608 2.54603567 7.61387622 5.32458088 9.7265625 10.078125 C10.47950145 15.33301145 10.36070781 19.62487533 8.2265625 24.515625 C3.4560179 29.40543322 -1.05579947 31.29883365 -7.8984375 31.578125 C-12.76053459 31.38310313 -15.58328719 30.40826065 -19.2734375 27.078125 C-23.5717852 22.31509106 -24.65495829 18.63706384 -24.54296875 12.35546875 C-24.02211766 7.95465444 -21.83595766 5.43902966 -18.578125 2.6015625 C-12.82379141 -1.56858209 -6.70116114 -2.71730933 0 0 Z " fill="#040404" transform="translate(1600.2734375,784.921875)"/>
</svg>
